<svg width="35" height="33" viewBox="0 0 51 38" fill="none" xmlns="http://www.w3.org/2000/svg">
<path d="M-6.10352e-05 6.33333C-6.10352e-05 4.65363 0.667199 3.04272 1.85493 1.85499C3.04266 0.66726 4.65357 0 6.33327 0H44.3333C46.013 0 47.6239 0.66726 48.8116 1.85499C49.9993 3.04272 50.6666 4.65363 50.6666 6.33333V31.6667C50.6666 33.3464 49.9993 34.9573 48.8116 36.145C47.6239 37.3327 46.013 38 44.3333 38H6.33327C4.65357 38 3.04266 37.3327 1.85493 36.145C0.667199 34.9573 -6.10352e-05 33.3464 -6.10352e-05 31.6667V6.33333ZM6.33327 3.16667C5.49342 3.16667 4.68797 3.5003 4.0941 4.09416C3.50024 4.68803 3.16661 5.49348 3.16661 6.33333V7.0205L25.3333 20.3205L47.4999 7.0205V6.33333C47.4999 5.49348 47.1663 4.68803 46.5724 4.09416C45.9786 3.5003 45.1731 3.16667 44.3333 3.16667H6.33327ZM47.4999 10.7128L32.4329 19.7537L47.4999 28.861V10.716V10.7128ZM47.3923 32.4932L29.3581 21.5967L25.3333 24.0128L21.3053 21.5967L3.27427 32.49C3.4554 33.1627 3.85329 33.7569 4.40632 34.1805C4.95934 34.6041 5.63663 34.8336 6.33327 34.8333H44.3333C45.0295 34.8338 45.7065 34.6048 46.2594 34.1818C46.8124 33.7587 47.2106 33.1653 47.3923 32.4932ZM3.16661 28.861L18.2336 19.7537L3.16661 10.7128V28.8578V28.861Z" fill="#F5F5F5"/>
<path d="M21.1111 11.4844C23.4438 11.4844 25.3333 13.3004 25.3333 15.5406C25.3333 13.3004 27.2227 11.4844 29.5555 11.4844C31.8883 11.4844 33.7777 13.3004 33.7777 15.5406C33.7777 18.9171 30.3641 20.1081 25.7471 25.4826C25.6962 25.5417 25.6329 25.5891 25.5614 25.6216C25.4899 25.6542 25.4121 25.671 25.3333 25.671C25.2545 25.671 25.1766 25.6542 25.1052 25.6216C25.0337 25.5891 24.9703 25.5417 24.9195 25.4826C20.3025 20.1081 16.8888 18.9171 16.8888 15.5406C16.8888 13.3004 18.7783 11.4844 21.1111 11.4844Z" fill="#F5F5F5"/>
</svg>
