<svg class="top-mg" width="50" height="50" viewBox="0 0 75 75" fill="none" xmlns="http://www.w3.org/2000/svg">
    <path d="M16.4062 0C17.0279 0 17.624 0.24693 18.0635 0.686468C18.5031 1.12601 18.75 1.72215 18.75 2.34375V4.6875H56.25V2.34375C56.25 1.72215 56.4969 1.12601 56.9365 0.686468C57.376 0.24693 57.9721 0 58.5938 0C59.2154 0 59.8115 0.24693 60.251 0.686468C60.6906 1.12601 60.9375 1.72215 60.9375 2.34375V4.6875H65.625C68.1114 4.6875 70.496 5.67522 72.2541 7.43337C74.0123 9.19153 75 11.5761 75 14.0625V65.625C75 68.1114 74.0123 70.496 72.2541 72.2541C70.496 74.0123 68.1114 75 65.625 75H9.375C6.8886 75 4.50403 74.0123 2.74587 72.2541C0.987721 70.496 0 68.1114 0 65.625V14.0625C0 11.5761 0.987721 9.19153 2.74587 7.43337C4.50403 5.67522 6.8886 4.6875 9.375 4.6875H14.0625V2.34375C14.0625 1.72215 14.3094 1.12601 14.749 0.686468C15.1885 0.24693 15.7846 0 16.4062 0V0ZM4.6875 18.75V65.625C4.6875 66.8682 5.18136 68.0605 6.06044 68.9396C6.93951 69.8186 8.1318 70.3125 9.375 70.3125H65.625C66.8682 70.3125 68.0605 69.8186 68.9396 68.9396C69.8186 68.0605 70.3125 66.8682 70.3125 65.625V18.75H4.6875Z" fill="#3F3F3F"/>
    <path d="M29.0064 27.5642C33.6991 27.5642 37.5 31.2567 37.5 35.8119C37.5 31.2567 41.3009 27.5642 45.9936 27.5642C50.6863 27.5642 54.4872 31.2567 54.4872 35.8119C54.4872 42.6773 47.6201 45.099 38.3324 56.0273C38.2301 56.1473 38.1027 56.2437 37.9589 56.3099C37.8151 56.3761 37.6585 56.4104 37.5 56.4104C37.3415 56.4104 37.1849 56.3761 37.0411 56.3099C36.8973 56.2437 36.7699 56.1473 36.6676 56.0273C27.3799 45.099 20.5128 42.6773 20.5128 35.8119C20.5128 31.2567 24.3137 27.5642 29.0064 27.5642Z" fill="#3F3F3F"/>
    </svg>