    <svg width="50" height="50" viewBox="0 0 75 75" fill="none" xmlns="http://www.w3.org/2000/svg">
    <path fill-rule="evenodd" clip-rule="evenodd" d="M14.5313 52.4993C14.7496 52.2082 15.0327 51.9719 15.3581 51.8092C15.6835 51.6465 16.0424 51.5618 16.4063 51.5618H28.125C28.7466 51.5618 29.3427 51.8087 29.7823 52.2483C30.2218 52.6878 30.4688 53.284 30.4688 53.9056C30.4688 54.5272 30.2218 55.1234 29.7823 55.5629C29.3427 56.0025 28.7466 56.2494 28.125 56.2494H17.5781L7.03125 70.3123H67.9688L57.4219 56.2494H46.875C46.2534 56.2494 45.6573 56.0025 45.2177 55.5629C44.7782 55.1234 44.5312 54.5272 44.5312 53.9056C44.5312 53.284 44.7782 52.6878 45.2177 52.2483C45.6573 51.8087 46.2534 51.5618 46.875 51.5618H58.5938C58.9576 51.5618 59.3165 51.6465 59.6419 51.8092C59.9674 51.9719 60.2504 52.2082 60.4688 52.4993L74.5312 71.2499C74.7924 71.5981 74.9514 72.0122 74.9905 72.4457C75.0296 72.8792 74.9472 73.315 74.7526 73.7044C74.5579 74.0937 74.2587 74.4211 73.8884 74.6499C73.5182 74.8788 73.0915 75 72.6562 75H2.34375C1.90849 75 1.48183 74.8788 1.11157 74.6499C0.741313 74.4211 0.442093 74.0937 0.247437 73.7044C0.0527822 73.315 -0.0296175 72.8792 0.00947147 72.4457C0.0485605 72.0122 0.207594 71.5981 0.468751 71.2499L14.5313 52.4993Z" fill="#3F3F3F"/>
    <path fill-rule="evenodd" clip-rule="evenodd" d="M37.5 4.68591C35.6533 4.68591 33.8247 5.04965 32.1185 5.75638C30.4124 6.46311 28.8621 7.49898 27.5563 8.80484C26.2505 10.1107 25.2147 11.661 24.5079 13.3672C23.8012 15.0734 23.4375 16.9021 23.4375 18.7488C23.4375 20.5956 23.8012 22.4243 24.5079 24.1305C25.2147 25.8367 26.2505 27.387 27.5563 28.6928C28.8621 29.9987 30.4124 31.0346 32.1185 31.7413C33.8247 32.448 35.6533 32.8118 37.5 32.8118C41.2296 32.8118 44.8065 31.3301 47.4437 28.6928C50.0809 26.0555 51.5625 22.4786 51.5625 18.7488C51.5625 15.0191 50.0809 11.4422 47.4437 8.80484C44.8065 6.16753 41.2296 4.68591 37.5 4.68591ZM18.75 18.7488C18.7503 15.1404 19.7918 11.6087 21.7495 8.57755C23.7072 5.54637 26.4979 3.14448 29.7867 1.66006C33.0756 0.17565 36.7229 -0.328221 40.291 0.20891C43.8591 0.74604 47.1965 2.30136 49.9026 4.68823C52.6087 7.07511 54.5687 10.1922 55.5473 13.6653C56.5259 17.1385 56.4815 20.8203 55.4196 24.2689C54.3577 27.7176 52.3232 30.7865 49.5604 33.1075C46.7976 35.4285 43.4238 36.903 39.8438 37.3541V63.2814C39.8438 63.9031 39.5968 64.4992 39.1573 64.9388C38.7177 65.3783 38.1216 65.6253 37.5 65.6253C36.8784 65.6253 36.2823 65.3783 35.8427 64.9388C35.4032 64.4992 35.1563 63.9031 35.1563 63.2814V37.3588C30.6233 36.7877 26.4548 34.581 23.4338 31.1534C20.4129 27.7258 18.7473 23.3131 18.75 18.7441V18.7488Z" fill="#3F3F3F"/>
    <path d="M32.3718 10.8975C35.3822 10.8975 37.8205 13.2771 37.8205 16.2127C37.8205 13.2771 40.2588 10.8975 43.2692 10.8975C46.2797 10.8975 48.718 13.2771 48.718 16.2127C48.718 20.637 44.3127 22.1977 38.3545 29.2403C38.2889 29.3177 38.2071 29.3798 38.1149 29.4225C38.0227 29.4651 37.9222 29.4872 37.8205 29.4872C37.7188 29.4872 37.6184 29.4651 37.5261 29.4225C37.4339 29.3798 37.3521 29.3177 37.2865 29.2403C31.3284 22.1977 26.9231 20.637 26.9231 16.2127C26.9231 13.2771 29.3614 10.8975 32.3718 10.8975Z" fill="#3F3F3F"/>
    </svg>
