<svg width="100%" height="auto" viewBox="0 0 1440 194" fill="none" xmlns="http://www.w3.org/2000/svg">
<path d="M1432.11 111.16L1372.44 86.3646C1312.76 72.5685 1193.41 39.1907 1074.06 39C954.71 39.1907 835.359 52.9869 716.008 80.3249C596.658 107.663 477.307 125.973 357.957 122.794C238.606 119.615 119.255 85.2838 59.5802 68.5632L-0.0951004 51.5882V194H59.5802C119.255 194 238.606 194 357.957 194C477.307 194 596.658 194 716.008 194C835.359 194 954.71 194 1074.06 194C1193.41 194 1312.76 194 1372.44 194H1432.11V111.16Z" fill="#BFBFBF" fill-opacity="0.5"/>
<path d="M-14 89.3848C5.76032 73.5678 39.1361 60.5 46.6678 58.671C54.1995 56.8421 228.671 0.236259 350.007 0C471.342 0.236259 592.678 17.3257 714.014 51.1895C835.349 85.0533 956.685 107.734 1078.02 103.797C1199.36 99.8589 1320.69 57.3322 1381.36 36.6202L1442.03 15.5931V192H1381.36C1320.69 192 1199.36 192 1078.02 192C956.685 192 835.349 192 714.014 192C592.678 192 471.342 192 350.007 192C228.671 192 107.336 192 46.6678 192H-14V89.3848Z" fill="#BFBFBF" fill-opacity="0.75"/>
<path d="M-14 107.45C8.14027 101.378 22.1648 99.2944 49.9404 97.944C110.356 97.944 212.057 142.115 371.656 107.45C433.079 94.1083 593.685 54.9189 714.518 65.9253C835.35 76.9317 902.815 125.16 1023.65 125.46C1144.48 125.16 1162.6 87.4379 1317.67 87.4379C1317.67 87.4379 1422.39 92.4408 1439.51 107.45C1454.11 108.45 1439.51 194 1439.51 194H1379.09C1318.68 194 1197.85 194 1077.01 194C956.182 194 835.35 194 714.518 194C593.685 194 472.853 194 352.021 194C231.189 194 110.356 194 49.9404 194H-10.4757L-14 107.45Z" fill="white"/>
</svg>