<svg width="1452" height="233" viewBox="0 0 1452 233" fill="none" xmlns="http://www.w3.org/2000/svg">
<path d="M1438 111.16L1378.08 86.3646C1318.17 72.5685 1198.33 39.1907 1078.5 39C958.667 39.1907 838.833 52.9869 719 80.3249C599.167 107.663 479.333 125.973 359.5 122.794C239.667 119.615 119.833 85.2838 59.9167 68.5632L2.67029e-05 51.5882V194H59.9167C119.833 194 239.667 194 359.5 194C479.333 194 599.167 194 719 194C838.833 194 958.667 194 1078.5 194C1198.33 194 1318.17 194 1378.08 194H1438V111.16Z" fill="#BFBFBF" fill-opacity="0.5"/>
<path d="M8 108.472L68 71.1998C128 50.461 248 0.28671 368 0C488 0.28671 608 21.0254 728 62.1206C848 103.216 968 130.74 1088 125.961C1208 121.183 1328 69.575 1388 44.4401L1448 18.9229V233H1388C1328 233 1208 233 1088 233C968 233 848 233 728 233C608 233 488 233 368 233C248 233 128 233 68 233H8V108.472Z" fill="#BFBFBF" fill-opacity="0.75"/>
<path d="M2 107.424C23.9878 101.356 37.9157 99.2738 65.5 97.9242C125.5 97.9242 226.5 142.069 385 107.424C446 94.0908 605.5 54.9242 725.5 65.9242C845.5 76.9242 912.5 125.124 1032.5 125.424C1152.5 125.124 1170.5 87.4242 1324.5 87.4242C1324.5 87.4242 1428.5 92.4242 1445.5 107.424C1460 108.424 1445.5 193.924 1445.5 193.924H1385.5C1325.5 193.924 1205.5 193.924 1085.5 193.924C965.5 193.924 845.5 193.924 725.5 193.924C605.5 193.924 485.5 193.924 365.5 193.924C245.5 193.924 125.5 193.924 65.5 193.924H5.5L2 107.424Z" fill="white"/>
</svg>
